<svg width="144" height="48" viewBox="0 0 144 48" fill="none" xmlns="http://www.w3.org/2000/svg">
<g clip-path="url(#clip0_233_10668)">
<path d="M132.162 -8.81406e-05H11.4416C11.0016 -8.81406e-05 10.5668 -8.81405e-05 10.1279 0.00231186C9.76056 0.00471186 9.39611 0.0116839 9.0252 0.0175519C8.21942 0.027034 7.41553 0.0979234 6.62052 0.229604C5.82663 0.364151 5.05761 0.617811 4.33946 0.982004C3.6222 1.34928 2.96681 1.82651 2.39708 2.3964C1.82436 2.96468 1.34696 3.62153 0.98322 4.3417C0.61848 5.06044 0.365569 5.83064 0.23322 6.62569C0.0996131 7.41973 0.0277181 8.22294 0.01818 9.02809C0.007044 9.39601 0.005868 9.76515 0 10.1331V37.8702C0.005868 38.2428 0.007044 38.6038 0.01818 38.9765C0.027721 39.7816 0.0996161 40.5848 0.23322 41.3788C0.365203 42.1743 0.61813 42.9449 0.98322 43.664C1.34679 44.3818 1.82426 45.036 2.39708 45.6011C2.96465 46.1735 3.62046 46.6511 4.33946 47.0156C5.0576 47.3807 5.82654 47.6359 6.62052 47.7725C7.41566 47.9031 8.21947 47.9741 9.0252 47.9847C9.39611 47.9928 9.76056 47.9975 10.1279 47.9975C10.5668 47.9999 11.0016 47.9999 11.4416 47.9999H132.162C132.593 47.9999 133.031 47.9999 133.463 47.9975C133.828 47.9975 134.203 47.9928 134.569 47.9847C135.373 47.9746 136.175 47.9037 136.969 47.7725C137.765 47.6349 138.537 47.3798 139.259 47.0156C139.977 46.6509 140.632 46.1733 141.199 45.6011C141.771 45.0338 142.249 44.3801 142.617 43.664C142.98 42.9444 143.23 42.1738 143.36 41.3788C143.494 40.5847 143.568 39.7817 143.583 38.9765C143.588 38.6038 143.588 38.2428 143.588 37.8702C143.597 37.4343 143.597 37.0007 143.597 36.5577V11.4433C143.597 11.0038 143.597 10.5679 143.588 10.1331C143.588 9.76515 143.588 9.39601 143.583 9.02804C143.568 8.22282 143.494 7.4198 143.36 6.62564C143.23 5.83105 142.979 5.06092 142.617 4.34166C141.876 2.89815 140.702 1.72314 139.259 0.981896C138.537 0.618593 137.765 0.365 136.969 0.229496C136.175 0.0972352 135.373 0.0263212 134.569 0.0173839C134.203 0.0115279 133.828 0.00449586 133.463 0.00215586C133.031 -0.000244141 132.593 -0.000244141 132.162 -0.000244141V-8.81406e-05Z" fill="#A6A6A6"/>
<path d="M10.1338 46.9498C9.76818 46.9498 9.41139 46.9451 9.04864 46.937C8.29718 46.9272 7.54748 46.8618 6.80568 46.7412C6.11398 46.6221 5.44392 46.4005 4.81759 46.0838C4.197 45.7696 3.63097 45.3577 3.14119 44.8638C2.64432 44.3758 2.23065 43.8097 1.91658 43.188C1.59904 42.5624 1.37929 41.8917 1.26498 41.1994C1.14152 40.4555 1.07473 39.7034 1.06518 38.9494C1.05757 38.6963 1.04761 37.8537 1.04761 37.8537V10.133C1.04761 10.133 1.05822 9.30332 1.06524 9.05956C1.07439 8.30678 1.14079 7.55579 1.26387 6.81308C1.3784 6.11891 1.59832 5.4463 1.91602 4.81856C2.22894 4.19734 2.64031 3.63084 3.13419 3.14102C3.62752 2.64655 4.19535 2.23253 4.817 1.91406C5.44189 1.59832 6.11069 1.37828 6.80098 1.26133C7.54522 1.13961 8.29753 1.0738 9.0516 1.06446L10.1344 1.0498H133.457L134.552 1.06504C135.3 1.07392 136.045 1.13914 136.782 1.26015C137.48 1.37857 138.155 1.60014 138.788 1.91757C140.033 2.55939 141.046 3.5748 141.686 4.82149C141.998 5.4449 142.215 6.11201 142.328 6.80019C142.452 7.54899 142.522 8.30589 142.536 9.06485C142.54 9.40469 142.54 9.76972 142.54 10.133C142.549 10.583 142.549 11.0113 142.549 11.4432V36.5576C142.549 36.9935 142.549 37.4189 142.54 37.8478C142.54 38.238 142.54 38.5955 142.535 38.9634C142.521 39.7089 142.453 40.4522 142.33 41.1876C142.218 41.8849 142 42.5608 141.682 43.1916C141.366 43.8065 140.954 44.3677 140.463 44.8545C139.973 45.351 139.406 45.7653 138.784 46.0815C138.154 46.4007 137.479 46.6231 136.782 46.7412C136.041 46.8624 135.291 46.9278 134.539 46.937C134.188 46.9451 133.82 46.9498 133.463 46.9498L132.162 46.9522L10.1338 46.9498Z" fill="black"/>
<path d="M29.7227 24.3605C29.7356 23.3589 30.0016 22.3769 30.496 21.5057C30.9905 20.6346 31.6972 19.9027 32.5505 19.3781C32.0084 18.6039 31.2933 17.9667 30.4619 17.5173C29.6305 17.0678 28.7058 16.8184 27.7611 16.7889C25.746 16.5773 23.7925 17.9947 22.7657 17.9947C21.7189 17.9947 20.1379 16.8099 18.4355 16.8449C17.3342 16.8805 16.261 17.2007 15.3204 17.7744C14.3797 18.348 13.6037 19.1556 13.068 20.1183C10.7472 24.1364 12.4783 30.0417 14.7014 33.2896C15.8137 34.88 17.1136 36.6566 18.8145 36.5936C20.479 36.5245 21.1007 35.5322 23.1098 35.5322C25.1003 35.5322 25.6836 36.5936 27.419 36.5535C29.2051 36.5245 30.3304 34.956 31.4036 33.3506C32.2028 32.2173 32.8178 30.9649 33.2257 29.6395C32.1881 29.2007 31.3026 28.4661 30.6796 27.5273C30.0567 26.5885 29.7239 25.4872 29.7227 24.3605V24.3605Z" fill="white"/>
<path d="M26.4447 14.6529C27.4185 13.4838 27.8983 11.9812 27.7821 10.4641C26.2943 10.6204 24.92 11.3314 23.933 12.4556C23.4505 13.0048 23.0809 13.6438 22.8454 14.3359C22.6099 15.028 22.5131 15.7598 22.5606 16.4893C23.3047 16.497 24.0409 16.3357 24.7137 16.0176C25.3865 15.6995 25.9784 15.2328 26.4447 14.6529Z" fill="white"/>
<path d="M50.7627 32.5675H45.0827L43.7186 36.5952H41.3127L46.6928 21.6936H49.1924L54.5725 36.5952H52.1256L50.7627 32.5675ZM45.6709 30.7089H50.1733L47.9538 24.1721H47.8917L45.6709 30.7089Z" fill="white"/>
<path d="M66.1917 31.1635C66.1917 34.5397 64.3846 36.7088 61.6577 36.7088C60.9669 36.7449 60.2799 36.5858 59.6753 36.2496C59.0708 35.9135 58.5731 35.4139 58.2393 34.808H58.1877V40.1893H55.9576V25.7307H58.1163V27.5377H58.1573C58.5064 26.9347 59.0125 26.4377 59.6217 26.0995C60.2308 25.7613 60.9203 25.5945 61.6167 25.617C64.374 25.617 66.1917 27.7967 66.1917 31.1635ZM63.8995 31.1635C63.8995 28.9639 62.7627 27.5178 61.0284 27.5178C59.3245 27.5178 58.1784 28.9943 58.1784 31.1635C58.1784 33.3526 59.3245 34.8186 61.0284 34.8186C62.7628 34.8186 63.8995 33.383 63.8995 31.1635Z" fill="white"/>
<path d="M78.1494 31.1635C78.1494 34.5397 76.3424 36.7088 73.6154 36.7088C72.9247 36.7449 72.2377 36.5858 71.6331 36.2496C71.0286 35.9135 70.5309 35.4139 70.1971 34.808H70.1455V40.1892H67.9154V25.7307H70.074V27.5377H70.115C70.4642 26.9347 70.9702 26.4377 71.5794 26.0995C72.1885 25.7613 72.878 25.5945 73.5744 25.617C76.3318 25.617 78.1494 27.7967 78.1494 31.1635ZM75.8572 31.1635C75.8572 28.9639 74.7205 27.5178 72.9861 27.5178C71.2822 27.5178 70.1361 28.9943 70.1361 31.1635C70.1361 33.3525 71.2822 34.8186 72.9861 34.8186C74.7205 34.8186 75.8572 33.383 75.8572 31.1635H75.8572Z" fill="white"/>
<path d="M86.0526 32.4432C86.2178 33.9209 87.6534 34.8912 89.6151 34.8912C91.4948 34.8912 92.8471 33.9209 92.8471 32.5884C92.8471 31.4318 92.0315 30.7392 90.1002 30.2646L88.169 29.7994C85.4327 29.1384 84.1623 27.8587 84.1623 25.7822C84.1623 23.2111 86.403 21.4451 89.5846 21.4451C92.7334 21.4451 94.892 23.2111 94.9647 25.7822H92.7135C92.5787 24.2951 91.3494 23.3974 89.5529 23.3974C87.7564 23.3974 86.5271 24.3056 86.5271 25.6275C86.5271 26.681 87.3123 27.3009 89.233 27.7755L90.8748 28.1786C93.9322 28.9017 95.2025 30.1298 95.2025 32.3095C95.2025 35.0974 92.9818 36.8435 89.4498 36.8435C86.1451 36.8435 83.9139 35.1384 83.7697 32.4431L86.0526 32.4432Z" fill="white"/>
<path d="M100.015 23.1597V25.7308H102.082V27.4968H100.015V33.4862C100.015 34.4167 100.429 34.8503 101.337 34.8503C101.583 34.846 101.828 34.8288 102.071 34.7987V36.5542C101.663 36.6305 101.248 36.665 100.832 36.6573C98.6327 36.6573 97.7749 35.8311 97.7749 33.7241V27.4968H96.1952V25.7308H97.7748V23.1597H100.015Z" fill="white"/>
<path d="M103.278 31.1636C103.278 27.7452 105.291 25.5972 108.431 25.5972C111.581 25.5972 113.585 27.7452 113.585 31.1636C113.585 34.5913 111.591 36.73 108.431 36.73C105.271 36.73 103.278 34.5913 103.278 31.1636ZM111.312 31.1636C111.312 28.8187 110.238 27.4347 108.431 27.4347C106.624 27.4347 105.55 28.8292 105.55 31.1636C105.55 33.5179 106.624 34.8913 108.431 34.8913C110.238 34.8913 111.312 33.5179 111.312 31.1636H111.312Z" fill="white"/>
<path d="M115.423 25.7306H117.55V27.5798H117.602C117.746 27.0022 118.084 26.4918 118.56 26.1344C119.036 25.7769 119.62 25.5942 120.215 25.6169C120.472 25.616 120.728 25.6439 120.979 25.7001V27.786C120.655 27.6869 120.316 27.6414 119.977 27.6513C119.653 27.6381 119.33 27.6952 119.03 27.8187C118.731 27.9422 118.461 28.129 118.24 28.3665C118.02 28.604 117.853 28.8864 117.751 29.1944C117.65 29.5024 117.617 29.8287 117.653 30.1509V36.595H115.423L115.423 25.7306Z" fill="white"/>
<path d="M131.261 33.4042C130.961 35.3765 129.04 36.73 126.583 36.73C123.423 36.73 121.461 34.6124 121.461 31.2151C121.461 27.8073 123.433 25.5972 126.489 25.5972C129.495 25.5972 131.385 27.662 131.385 30.9561V31.7202H123.712V31.855C123.677 32.2548 123.727 32.6576 123.859 33.0366C123.991 33.4156 124.202 33.7622 124.479 34.0532C124.755 34.3443 125.09 34.5732 125.462 34.7248C125.834 34.8763 126.234 34.9471 126.635 34.9323C127.162 34.9817 127.69 34.8596 128.143 34.5843C128.595 34.309 128.946 33.8951 129.144 33.4042L131.261 33.4042ZM123.723 30.1616H129.154C129.174 29.8021 129.12 29.4423 128.994 29.1049C128.868 28.7674 128.674 28.4596 128.424 28.2007C128.174 27.9417 127.873 27.7373 127.54 27.6003C127.207 27.4632 126.849 27.3965 126.489 27.4042C126.126 27.402 125.766 27.4718 125.43 27.6095C125.094 27.7472 124.789 27.9501 124.531 28.2064C124.274 28.4628 124.07 28.7676 123.931 29.1031C123.793 29.4387 123.722 29.7985 123.723 30.1616V30.1616Z" fill="white"/>
<path d="M45.3914 10.4771C45.859 10.4436 46.3281 10.5142 46.7651 10.6839C47.202 10.8536 47.5958 11.1182 47.9181 11.4586C48.2404 11.7989 48.4832 12.2066 48.6289 12.6521C48.7745 13.0976 48.8195 13.5699 48.7606 14.0349C48.7606 16.3224 47.5243 17.6373 45.3914 17.6373H42.8051V10.4771H45.3914ZM43.9172 16.6247H45.2672C45.6013 16.6447 45.9356 16.5899 46.2459 16.4644C46.5561 16.3388 46.8345 16.1457 47.0607 15.899C47.2869 15.6523 47.4552 15.3583 47.5534 15.0384C47.6517 14.7184 47.6773 14.3806 47.6285 14.0495C47.6738 13.7197 47.6455 13.384 47.5458 13.0664C47.446 12.7488 47.2773 12.4572 47.0516 12.2125C46.8259 11.9678 46.5489 11.776 46.2404 11.6509C45.9319 11.5258 45.5996 11.4705 45.2672 11.489H43.9172V16.6247Z" fill="white"/>
<path d="M50.0168 14.933C49.9828 14.5779 50.0235 14.2197 50.1361 13.8812C50.2487 13.5427 50.4308 13.2315 50.6707 12.9675C50.9107 12.7035 51.2031 12.4926 51.5293 12.3483C51.8556 12.204 52.2083 12.1294 52.5651 12.1294C52.9218 12.1294 53.2746 12.204 53.6008 12.3483C53.927 12.4926 54.2195 12.7035 54.4594 12.9675C54.6993 13.2315 54.8814 13.5427 54.994 13.8812C55.1066 14.2197 55.1473 14.5779 55.1133 14.933C55.1479 15.2885 55.1078 15.6473 54.9955 15.9863C54.8832 16.3254 54.7012 16.6371 54.4612 16.9016C54.2212 17.1661 53.9285 17.3775 53.6019 17.5221C53.2754 17.6668 52.9222 17.7415 52.5651 17.7415C52.2079 17.7415 51.8547 17.6668 51.5282 17.5221C51.2016 17.3775 50.9089 17.1661 50.6689 16.9016C50.429 16.6371 50.247 16.3254 50.1346 15.9863C50.0223 15.6473 49.9822 15.2885 50.0168 14.933V14.933ZM54.0164 14.933C54.0164 13.7618 53.4902 13.0768 52.5668 13.0768C51.6399 13.0768 51.1184 13.7618 51.1184 14.9331C51.1184 16.1137 51.6399 16.7934 52.5668 16.7934C53.4903 16.7934 54.0164 16.109 54.0164 14.933H54.0164Z" fill="white"/>
<path d="M61.8879 17.6372H60.7817L59.6649 13.6575H59.5805L58.4684 17.6372H57.3727L55.8832 12.2336H56.9649L57.9329 16.3568H58.0125L59.1235 12.2336H60.1465L61.2575 16.3568H61.3418L62.3051 12.2336H63.3715L61.8879 17.6372Z" fill="white"/>
<path d="M64.6243 12.2336H65.6508V13.092H65.7305C65.8657 12.7837 66.0937 12.5253 66.3828 12.3527C66.6718 12.1802 67.0075 12.1021 67.343 12.1293C67.6059 12.1096 67.8699 12.1492 68.1155 12.2453C68.361 12.3414 68.5817 12.4916 68.7613 12.6846C68.941 12.8776 69.0748 13.1086 69.1531 13.3603C69.2313 13.6121 69.2519 13.8783 69.2133 14.1391V17.6371H68.1469V14.4069C68.1469 13.5385 67.7696 13.1067 66.9809 13.1067C66.8024 13.0984 66.6242 13.1288 66.4585 13.1958C66.2929 13.2628 66.1436 13.3648 66.0211 13.4948C65.8985 13.6249 65.8056 13.7799 65.7485 13.9493C65.6915 14.1186 65.6718 14.2983 65.6907 14.476V17.6372H64.6243L64.6243 12.2336Z" fill="white"/>
<path d="M70.9125 10.1243H71.9789V17.6372H70.9125V10.1243Z" fill="white"/>
<path d="M73.4614 14.9331C73.4274 14.578 73.4681 14.2197 73.5807 13.8812C73.6933 13.5427 73.8755 13.2315 74.1154 12.9675C74.3554 12.7035 74.6479 12.4926 74.9741 12.3483C75.3004 12.204 75.6532 12.1294 76.0099 12.1294C76.3666 12.1294 76.7195 12.204 77.0457 12.3483C77.3719 12.4926 77.6644 12.7035 77.9044 12.9675C78.1443 13.2315 78.3265 13.5427 78.4391 13.8812C78.5517 14.2197 78.5924 14.578 78.5584 14.9331C78.593 15.2886 78.5528 15.6474 78.4405 15.9864C78.3281 16.3255 78.1461 16.6372 77.9061 16.9017C77.6661 17.1662 77.3734 17.3776 77.0468 17.5222C76.7203 17.6668 76.3671 17.7416 76.0099 17.7416C75.6527 17.7416 75.2995 17.6668 74.973 17.5222C74.6464 17.3776 74.3537 17.1662 74.1137 16.9017C73.8737 16.6372 73.6917 16.3255 73.5793 15.9864C73.467 15.6474 73.4268 15.2886 73.4614 14.9331V14.9331ZM77.461 14.9331C77.461 13.7619 76.9348 13.0769 76.0114 13.0769C75.0844 13.0769 74.563 13.7619 74.563 14.9332C74.563 16.1138 75.0844 16.7935 76.0114 16.7935C76.9348 16.7935 77.461 16.1091 77.461 14.9331H77.461Z" fill="white"/>
<path d="M79.6811 16.1091C79.6811 15.1364 80.4053 14.5757 81.6908 14.496L83.1545 14.4116V13.9452C83.1545 13.3745 82.7772 13.0522 82.0483 13.0522C81.453 13.0522 81.0405 13.2708 80.9221 13.6528H79.8897C79.9987 12.7247 80.8717 12.1294 82.0975 12.1294C83.4522 12.1294 84.2162 12.8038 84.2162 13.9452V17.6372H83.1897V16.8778H83.1053C82.9341 17.1502 82.6936 17.3723 82.4084 17.5213C82.1233 17.6704 81.8037 17.7411 81.4823 17.7262C81.2554 17.7498 81.0262 17.7256 80.8092 17.6552C80.5923 17.5847 80.3926 17.4696 80.2229 17.3173C80.0532 17.1649 79.9173 16.9787 79.824 16.7706C79.7307 16.5625 79.682 16.3371 79.6811 16.1091V16.1091ZM83.1545 15.6474V15.1956L81.835 15.28C81.0909 15.3298 80.7533 15.5829 80.7533 16.0593C80.7533 16.5456 81.1752 16.8286 81.7553 16.8286C81.9253 16.8458 82.097 16.8286 82.2602 16.7781C82.4234 16.7276 82.5748 16.6448 82.7054 16.5346C82.8359 16.4244 82.9429 16.289 83.0201 16.1366C83.0973 15.9842 83.143 15.8178 83.1545 15.6474V15.6474Z" fill="white"/>
<path d="M85.6178 14.9331C85.6178 13.2257 86.4955 12.144 87.8608 12.144C88.1985 12.1285 88.5336 12.2093 88.827 12.3772C89.1205 12.5451 89.3601 12.793 89.5178 13.092H89.5975V10.1243H90.6639V17.6372H89.642V16.7834H89.5576C89.3877 17.0804 89.1398 17.3253 88.8407 17.4914C88.5416 17.6576 88.2027 17.7388 87.8608 17.7262C86.4862 17.7263 85.6178 16.6446 85.6178 14.9331ZM86.7194 14.9331C86.7194 16.0792 87.2596 16.7688 88.1632 16.7688C89.062 16.7688 89.6174 16.0692 89.6174 14.9378C89.6174 13.8116 89.0561 13.102 88.1632 13.102C87.2655 13.102 86.7194 13.7964 86.7194 14.9331H86.7194Z" fill="white"/>
<path d="M95.076 14.933C95.042 14.5779 95.0827 14.2197 95.1953 13.8812C95.3079 13.5427 95.49 13.2315 95.7299 12.9675C95.9699 12.7035 96.2623 12.4926 96.5885 12.3483C96.9147 12.204 97.2675 12.1294 97.6243 12.1294C97.981 12.1294 98.3338 12.204 98.66 12.3483C98.9862 12.4926 99.2787 12.7035 99.5186 12.9675C99.7585 13.2315 99.9406 13.5427 100.053 13.8812C100.166 14.2197 100.206 14.5779 100.173 14.933C100.207 15.2885 100.167 15.6473 100.055 15.9863C99.9424 16.3254 99.7604 16.6371 99.5204 16.9016C99.2804 17.1661 98.9877 17.3775 98.6611 17.5221C98.3346 17.6668 97.9814 17.7415 97.6243 17.7415C97.2671 17.7415 96.9139 17.6668 96.5874 17.5221C96.2608 17.3775 95.9681 17.1661 95.7281 16.9016C95.4882 16.6371 95.3062 16.3254 95.1938 15.9863C95.0815 15.6473 95.0414 15.2885 95.076 14.933V14.933ZM99.0756 14.933C99.0756 13.7618 98.5494 13.0768 97.626 13.0768C96.6991 13.0768 96.1776 13.7618 96.1776 14.9331C96.1776 16.1137 96.6991 16.7934 97.626 16.7934C98.5495 16.7934 99.0756 16.109 99.0756 14.933Z" fill="white"/>
<path d="M101.603 12.2336H102.63V13.092H102.71C102.845 12.7837 103.073 12.5253 103.362 12.3527C103.651 12.1802 103.987 12.1021 104.322 12.1293C104.585 12.1096 104.849 12.1492 105.095 12.2453C105.34 12.3414 105.561 12.4916 105.74 12.6846C105.92 12.8776 106.054 13.1086 106.132 13.3603C106.21 13.6121 106.231 13.8783 106.192 14.1391V17.6371H105.126V14.4069C105.126 13.5385 104.749 13.1067 103.96 13.1067C103.781 13.0984 103.603 13.1288 103.438 13.1958C103.272 13.2628 103.123 13.3648 103 13.4948C102.878 13.6249 102.785 13.7799 102.728 13.9493C102.671 14.1186 102.651 14.2983 102.67 14.476V17.6372H101.603V12.2336Z" fill="white"/>
<path d="M112.218 10.8884V12.2583H113.389V13.1566H112.218V15.9351C112.218 16.5011 112.451 16.749 112.982 16.749C113.118 16.7485 113.254 16.7403 113.389 16.7244V17.6126C113.197 17.6469 113.003 17.6651 112.809 17.6671C111.623 17.6671 111.151 17.2499 111.151 16.2081V13.1565H110.293V12.2583H111.151V10.8884H112.218Z" fill="white"/>
<path d="M114.846 10.1243H115.903V13.102H115.987C116.129 12.7908 116.363 12.5309 116.658 12.3577C116.953 12.1845 117.294 12.1064 117.635 12.134C117.896 12.1198 118.158 12.1635 118.4 12.2619C118.643 12.3604 118.861 12.5112 119.039 12.7036C119.217 12.896 119.35 13.1253 119.429 13.375C119.507 13.6248 119.53 13.8889 119.495 14.1485V17.6372H118.428V14.4116C118.428 13.5485 118.026 13.1114 117.273 13.1114C117.089 13.0963 116.905 13.1215 116.732 13.1852C116.56 13.2489 116.403 13.3495 116.274 13.4799C116.144 13.6104 116.045 13.7676 115.982 13.9406C115.92 14.1136 115.896 14.2981 115.912 14.4813V17.6371H114.846L114.846 10.1243Z" fill="white"/>
<path d="M125.714 16.1781C125.569 16.6719 125.255 17.0991 124.827 17.3849C124.399 17.6707 123.884 17.7968 123.372 17.7413C123.016 17.7507 122.662 17.6826 122.335 17.5415C122.008 17.4005 121.716 17.19 121.478 16.9246C121.241 16.6593 121.064 16.3454 120.96 16.0048C120.856 15.6642 120.827 15.3051 120.876 14.9523C120.829 14.5984 120.858 14.2385 120.962 13.8969C121.065 13.5553 121.241 13.24 121.478 12.9723C121.714 12.7046 122.005 12.4908 122.331 12.3453C122.657 12.1999 123.01 12.1262 123.367 12.1292C124.871 12.1292 125.778 13.1564 125.778 14.8532V15.2253H121.962V15.2851C121.946 15.4834 121.971 15.683 122.036 15.8711C122.1 16.0592 122.204 16.2317 122.339 16.3774C122.475 16.5231 122.639 16.639 122.822 16.7174C123.005 16.7959 123.202 16.8353 123.401 16.8331C123.656 16.8637 123.915 16.8178 124.144 16.7012C124.373 16.5845 124.562 16.4024 124.687 16.178L125.714 16.1781ZM121.962 14.4367H124.692C124.705 14.2553 124.68 14.0731 124.619 13.9019C124.558 13.7306 124.462 13.574 124.337 13.4422C124.211 13.3104 124.06 13.2062 123.892 13.1364C123.724 13.0666 123.543 13.0327 123.362 13.0369C123.177 13.0345 122.994 13.0692 122.823 13.1387C122.652 13.2082 122.497 13.3113 122.367 13.4417C122.236 13.5722 122.133 13.7274 122.064 13.8983C121.994 14.0692 121.96 14.2522 121.962 14.4367H121.962Z" fill="white"/>
</g>
<defs>
<clipPath id="clip0_233_10668">
<rect width="143.597" height="48" fill="white"/>
</clipPath>
</defs>
</svg>
