<svg width="260" height="260" viewBox="0 0 260 260" fill="none" xmlns="http://www.w3.org/2000/svg">
<g opacity="0.05">
<path d="M134.288 10.6054C163.205 18.3655 187.45 36.1966 205.314 62.8447C208.929 68.234 211.885 73.4708 211.885 74.4797C211.885 76.5125 186.623 103.008 185.81 101.829C185.529 101.421 183.234 96.9877 180.711 91.9762C174.055 78.7557 166.554 69.8194 154.904 61.2327C139.529 49.9008 129.432 46.7713 110.716 47.5384C90.3301 48.3734 78.7311 53.973 64.2388 69.9768C36.648 100.444 32.8437 143.318 53.8348 187.237C66.7649 214.294 85.1833 233.368 111.645 247.112L126.08 254.608L115.655 253.546C67.8715 248.676 28.4813 217.215 12.7781 171.375C-1.25385 130.417 6.27617 86.3533 33.1902 51.9121C48.3673 32.4922 71.3326 17.277 95.2346 10.8059C109.99 6.81324 119.966 6.76023 134.288 10.6054Z" fill="#FFCA62"/>
<path d="M119.887 53.872C123.263 53.872 122.352 55.0532 113.826 61.7413C94.63 76.7991 83.602 98.9294 82.3317 124.943C80.9588 153.042 88.1408 172.802 106.834 192.349C119.801 205.91 130.668 211.99 146.503 214.543C158.485 216.474 174.868 213.963 184.875 208.66C199.32 201.004 215.553 183.569 222.889 167.828L227.303 158.359L240.46 172.022L253.618 185.683L246.297 197.228C229.553 223.635 204.562 242.278 175.475 250.064C131.526 261.827 75.7223 227.533 55.607 176.395C50.34 163.004 46.6897 144.558 46.6897 131.326C46.6897 94.2608 72.4665 59.3805 103.866 53.9581C108.145 53.2192 112.606 52.8978 113.781 53.2441C114.955 53.5887 117.704 53.872 119.887 53.872Z" fill="#FFCA62"/>
<path d="M218.188 162.656C211.58 178.579 196.607 195.012 181.523 202.891C173.125 207.276 159.348 209.866 151.154 208.597L143.98 207.485L148.663 204.004C163.776 192.767 177.821 174.591 181.685 161.271L183.524 154.931H202.459H221.394L218.188 162.656Z" fill="#FFCA62"/>
<path d="M248.773 79.7762C248.773 80.028 243.359 85.6708 236.743 92.3175L224.711 104.401L209.077 105.256C200.477 105.727 193.126 105.899 192.743 105.639C192.358 105.381 197.774 99.2823 204.777 92.0872L217.51 79.0058L233.141 79.1632C241.739 79.2494 248.773 79.5261 248.773 79.7762Z" fill="#FFCA62"/>
<path d="M176.278 10.95C197.11 16.6359 220.278 30.7046 233.137 45.4791C239.431 52.709 251.981 70.6544 251.981 72.4221C251.981 72.7468 244.306 72.8545 234.926 72.659L217.87 72.3045L214.166 65.57C208.114 54.5645 196.494 39.8281 188.288 32.7539C177.212 23.2063 160.974 12.7144 153.869 10.516C137.087 5.32221 157.075 5.70988 176.278 10.95Z" fill="#FFCA62"/>
</g>
</svg>
