<svg width="25" height="24" viewBox="0 0 25 24" fill="none" xmlns="http://www.w3.org/2000/svg">
<path d="M9.95001 17.65C9.83335 17.65 9.72918 17.6292 9.63751 17.5875C9.54585 17.5458 9.45001 17.4833 9.35001 17.4L4.82501 12.875C4.65835 12.7083 4.57501 12.5 4.57501 12.25C4.57501 12 4.65835 11.7917 4.82501 11.625C4.99168 11.4583 5.19168 11.375 5.42501 11.375C5.65835 11.375 5.85835 11.4583 6.02501 11.625L9.95001 15.55L18.95 6.54999C19.1167 6.38332 19.3167 6.29999 19.55 6.29999C19.7833 6.29999 19.9917 6.38332 20.175 6.54999C20.3417 6.71665 20.425 6.92082 20.425 7.16249C20.425 7.40415 20.3417 7.60832 20.175 7.77499L10.55 17.4C10.45 17.4833 10.3542 17.5458 10.2625 17.5875C10.1708 17.6292 10.0667 17.65 9.95001 17.65Z" fill="white"/>
</svg>
