<svg width="24" height="24" viewBox="0 0 24 24" fill="none" xmlns="http://www.w3.org/2000/svg">
<path d="M9.45005 17.5499C9.35005 17.5499 9.25838 17.5332 9.17505 17.4999C9.09172 17.4666 9.00838 17.4082 8.92505 17.3249L4.40005 12.7999C4.25005 12.6499 4.17505 12.4666 4.17505 12.2499C4.17505 12.0332 4.25005 11.8499 4.40005 11.6999C4.55005 11.5499 4.72505 11.4749 4.92505 11.4749C5.12505 11.4749 5.30005 11.5499 5.45005 11.6999L9.45005 15.6999L18.525 6.6249C18.675 6.4749 18.8542 6.3999 19.0625 6.3999C19.2709 6.3999 19.45 6.4749 19.6 6.6249C19.75 6.7749 19.825 6.95407 19.825 7.1624C19.825 7.37074 19.75 7.5499 19.6 7.6999L9.97505 17.3249C9.89172 17.4082 9.80838 17.4666 9.72505 17.4999C9.64172 17.5332 9.55005 17.5499 9.45005 17.5499Z" fill="#E0E0E0"/>
</svg>