<svg width="163" height="48" viewBox="0 0 163 48" fill="none" xmlns="http://www.w3.org/2000/svg">
<g clip-path="url(#clip0_233_10669)">
<path fill-rule="evenodd" clip-rule="evenodd" d="M156.595 48H6.59913C3.29106 48 0.596924 45.2948 0.596924 42V6C0.596924 2.69327 3.29106 0 6.59913 0H156.595C159.9 0 162.597 2.69327 162.597 6V42C162.597 45.2948 159.9 48 156.595 48Z" fill="black"/>
<path fill-rule="evenodd" clip-rule="evenodd" d="M156.595 0.960598C159.369 0.960598 161.64 3.22594 161.64 6V42C161.64 44.7741 159.384 47.0394 156.595 47.0394H6.59913C3.82453 47.0394 1.55358 44.7741 1.55358 42V6C1.55358 3.22594 3.80962 0.960598 6.59913 0.960598H156.595ZM156.595 0H6.59913C3.29106 0 0.596924 2.70524 0.596924 6V42C0.596924 45.3067 3.29106 48 6.59913 48H156.595C159.9 48 162.597 45.3067 162.597 42V6C162.597 2.70524 159.9 0 156.595 0Z" fill="#A6A6A6"/>
<path d="M85.9389 15.8783C84.8571 15.8783 83.9451 15.4982 83.2239 14.7501C82.5087 14.0229 82.1093 13.0204 82.1272 11.997C82.1272 10.9047 82.4967 9.98 83.2239 9.24683C83.9421 8.4987 84.8541 8.11865 85.9359 8.11865C87.0058 8.11865 87.9178 8.4987 88.6509 9.24683C89.3781 10.0039 89.7476 10.9286 89.7476 11.997C89.7357 13.0922 89.3662 14.0169 88.6509 14.7471C87.9327 15.5012 87.0207 15.8783 85.9389 15.8783ZM53.7495 15.8783C52.6915 15.8783 51.7736 15.5042 51.0226 14.765C50.2775 14.0289 49.899 13.0982 49.899 11.9999C49.899 10.9017 50.2775 9.97102 51.0226 9.23486C51.7587 8.49571 52.6766 8.12165 53.7495 8.12165C54.274 8.12165 54.7836 8.22638 55.2724 8.43885C55.7522 8.64534 56.1426 8.92663 56.4317 9.27077L56.5032 9.35756L55.6956 10.1536L55.6121 10.0548C55.1562 9.51017 54.5452 9.24384 53.7376 9.24384C53.0164 9.24384 52.3875 9.5012 51.869 10.0099C51.3474 10.5216 51.0822 11.192 51.0822 12.0029C51.0822 12.8139 51.3474 13.4842 51.869 13.996C52.3875 14.5047 53.0164 14.762 53.7376 14.762C54.5065 14.762 55.1532 14.5047 55.6568 13.996C55.9549 13.6967 56.1396 13.2778 56.2052 12.7481H53.6154V11.6289H57.3168L57.3317 11.7306C57.3585 11.9192 57.3854 12.1137 57.3854 12.2932C57.3854 13.3256 57.0754 14.1605 56.4615 14.777C55.7641 15.5072 54.8522 15.8783 53.7495 15.8783ZM96.5485 15.7196H95.4071L91.9113 10.1027L91.9411 11.1142V15.7167H90.7996V8.28025H92.102L92.1378 8.33711L95.4249 13.6279L95.3951 12.6194V8.28025H96.5485V15.7196ZM77.3618 15.7196H76.2055V9.39945H74.1998V8.28025H79.3645V9.39945H77.3588V15.7196H77.3618ZM73.258 15.7196H72.1047V8.28025H73.258V15.7196ZM66.7761 15.7196H65.6227V9.39945H63.617V8.28025H68.7817V9.39945H66.7761V15.7196ZM62.8869 15.7077H58.4642V8.28025H62.8869V9.39945H59.6205V11.4403H62.568V12.5476H59.6205V14.5885H62.8869V15.7077ZM84.0703 13.981C84.5859 14.4987 85.2117 14.7591 85.9389 14.7591C86.6869 14.7591 87.2979 14.5047 87.8075 13.981C88.3141 13.4723 88.5704 12.8049 88.5704 11.9999C88.5704 11.195 88.3141 10.5246 87.8105 10.0189C87.2949 9.5012 86.6661 9.24085 85.9419 9.24085C85.1938 9.24085 84.5829 9.49521 84.0763 10.0189C83.5696 10.5276 83.3133 11.195 83.3133 11.9999C83.3133 12.8049 83.5666 13.4753 84.0703 13.981Z" fill="white"/>
<path fill-rule="evenodd" clip-rule="evenodd" d="M82.02 26.1068C79.2036 26.1068 76.9208 28.2524 76.9208 31.212C76.9208 34.1447 79.2185 36.3173 82.02 36.3173C84.8363 36.3173 87.1192 34.1567 87.1192 31.212C87.1192 28.2524 84.8363 26.1068 82.02 26.1068ZM82.02 34.2943C80.4792 34.2943 79.153 33.0135 79.153 31.2001C79.153 29.3597 80.4822 28.1058 82.02 28.1058C83.5607 28.1058 84.887 29.3597 84.887 31.2001C84.8899 33.0255 83.5607 34.2943 82.02 34.2943ZM70.8947 26.1068C68.0784 26.1068 65.7955 28.2524 65.7955 31.212C65.7955 34.1447 68.0933 36.3173 70.8947 36.3173C73.711 36.3173 75.9939 34.1567 75.9939 31.212C75.9939 28.2524 73.7081 26.1068 70.8947 26.1068ZM70.8947 34.2943C69.3539 34.2943 68.0277 33.0135 68.0277 31.2001C68.0277 29.3597 69.3569 28.1058 70.8947 28.1058C72.4355 28.1058 73.7617 29.3597 73.7617 31.2001C73.7617 33.0255 72.4355 34.2943 70.8947 34.2943ZM57.6564 27.6659V29.8265H62.8212C62.6633 31.0385 62.2639 31.9332 61.653 32.5467C60.896 33.3068 59.7277 34.1327 57.6684 34.1327C54.4944 34.1327 52.0119 31.5592 52.0119 28.3721C52.0119 25.1851 54.4944 22.6115 57.6684 22.6115C59.382 22.6115 60.6307 23.2908 61.5576 24.1587L63.0835 22.6265C61.796 21.3876 60.0824 20.439 57.6803 20.439C53.3261 20.439 49.6724 24.0001 49.6724 28.3602C49.6724 32.7322 53.3232 36.2814 57.6803 36.2814C60.0317 36.2814 61.796 35.5093 63.1908 34.0549C64.6123 32.6275 65.0624 30.6135 65.0624 28.9886C65.0624 28.4829 65.0236 28.028 64.9431 27.642H57.6535C57.6564 27.639 57.6564 27.6659 57.6564 27.6659ZM111.805 29.3477C111.378 28.2016 110.091 26.0948 107.45 26.0948C104.834 26.0948 102.658 28.1627 102.658 31.2001C102.658 34.0669 104.81 36.3053 107.704 36.3053C110.028 36.3053 111.381 34.8779 111.939 34.04L110.213 32.8789C109.641 33.7317 108.845 34.2913 107.716 34.2913C106.574 34.2913 105.775 33.7706 105.245 32.7442L112.043 29.9163C112.043 29.9193 111.805 29.3477 111.805 29.3477ZM104.872 31.0534C104.819 29.0814 106.398 28.0789 107.528 28.0789C108.419 28.0789 109.161 28.5188 109.414 29.1592L104.872 31.0534ZM99.3501 36.0001H101.582V21.0016H99.3501V36.0001ZM95.6844 27.241H95.6039C95.1003 26.6395 94.1436 26.0948 92.9217 26.0948C90.3855 26.0948 88.049 28.3362 88.049 31.215C88.049 34.0819 90.3736 36.2963 92.9217 36.2963C94.1287 36.2963 95.1003 35.7487 95.6039 35.1352H95.6844V35.8684C95.6844 37.8165 94.6473 38.8669 92.9753 38.8669C91.6074 38.8669 90.758 37.8794 90.4123 37.0534L88.4722 37.8674C89.0295 39.214 90.5166 40.8809 92.9724 40.8809C95.589 40.8809 97.8063 39.3337 97.8063 35.5602V26.4001H95.6963V27.241C95.6993 27.241 95.6844 27.241 95.6844 27.241ZM93.1214 34.2943C91.5806 34.2943 90.2931 33.0016 90.2931 31.215C90.2931 29.4135 91.5806 28.1088 93.1214 28.1088C94.6473 28.1088 95.8304 29.4285 95.8304 31.215C95.8453 33.0016 94.6502 34.2943 93.1214 34.2943ZM122.256 21.0016H116.919V36.0001H119.151V30.3203H122.259C124.73 30.3203 127.159 28.5218 127.159 25.6669C127.159 22.812 124.739 21.0016 122.256 21.0016ZM122.322 28.2255H119.148V23.0784H122.322C123.994 23.0784 124.938 24.4639 124.938 25.6519C124.938 26.828 123.982 28.2255 122.322 28.2255ZM136.105 26.0799C134.484 26.0799 132.812 26.8011 132.121 28.3721L134.1 29.1981C134.526 28.3721 135.307 28.0908 136.132 28.0908C137.289 28.0908 138.457 28.7851 138.484 30.024V30.1826C138.084 29.9552 137.208 29.608 136.159 29.608C134.022 29.608 131.856 30.7811 131.856 32.9806C131.856 34.9946 133.608 36.2873 135.56 36.2873C137.059 36.2873 137.885 35.608 138.4 34.821H138.481V35.9821H140.632V30.2365C140.632 27.5612 138.654 26.0799 136.105 26.0799ZM135.825 34.2943C135.095 34.2943 134.073 33.9352 134.073 33.0135C134.073 31.8524 135.348 31.4125 136.436 31.4125C137.42 31.4125 137.885 31.625 138.469 31.9183C138.308 33.2649 137.175 34.2824 135.825 34.2943ZM148.482 26.4001L145.919 32.9058H145.839L143.184 26.4001H140.781L144.766 35.4943L142.495 40.5487H144.82L150.95 26.4001H148.482ZM128.39 36.0001H130.622V21.0016H128.39V36.0001Z" fill="white"/>
<path fill-rule="evenodd" clip-rule="evenodd" d="M13.0663 9.04027C12.7205 9.41434 12.5209 9.98591 12.5209 10.734V37.2687C12.5209 38.0168 12.7205 38.5884 13.0782 38.9475L13.1706 39.0283L27.9764 24.1615V23.8293L13.1586 8.95947L13.0663 9.04027Z" fill="url(#paint0_linear_233_10669)"/>
<path fill-rule="evenodd" clip-rule="evenodd" d="M32.9026 29.1323L27.9644 24.1737V23.8265L32.9026 18.8679L33.0099 18.9338L38.8512 22.2674C40.5232 23.2131 40.5232 24.7752 38.8512 25.7328L33.0099 29.0664L32.9026 29.1323Z" fill="url(#paint1_linear_233_10669)"/>
<path fill-rule="evenodd" clip-rule="evenodd" d="M33.0099 29.0663L27.9644 24L13.0662 38.9596C13.6115 39.5461 14.5265 39.612 15.5487 39.0404L33.0099 29.0663Z" fill="url(#paint2_linear_233_10669)"/>
<path fill-rule="evenodd" clip-rule="evenodd" d="M33.0099 18.9337L15.5487 8.97458C14.5265 8.38805 13.6086 8.46884 13.0662 9.05538L27.9644 24L33.0099 18.9337Z" fill="url(#paint3_linear_233_10669)"/>
<path opacity="0.2" fill-rule="evenodd" clip-rule="evenodd" d="M32.9028 28.9587L15.5607 38.852C14.5921 39.4116 13.7278 39.3727 13.1705 38.8639L13.0781 38.9567L13.1705 39.0375C13.7278 39.5432 14.5921 39.5851 15.5607 39.0255L33.022 29.0665L32.9028 28.9587Z" fill="black"/>
<path opacity="0.12" fill-rule="evenodd" clip-rule="evenodd" d="M38.8513 25.5591L32.8878 28.9586L32.9951 29.0663L38.8364 25.7327C39.6738 25.2539 40.0851 24.6254 40.0851 24C40.0344 24.5746 39.6083 25.1192 38.8513 25.5591Z" fill="black"/>
<path opacity="0.25" fill-rule="evenodd" clip-rule="evenodd" d="M15.5488 9.14825L38.8513 22.441C39.6083 22.8689 40.0345 23.4285 40.1 24.0001C40.1 23.3747 39.6888 22.7462 38.8513 22.2674L15.5488 8.97468C13.8769 8.01408 12.5209 8.81608 12.5209 10.7343V10.9078C12.5209 8.98665 13.8769 8.19962 15.5488 9.14825Z" fill="white"/>
</g>
<defs>
<linearGradient id="paint0_linear_233_10669" x1="26.6484" y1="10.4478" x2="2.91907" y2="16.7445" gradientUnits="userSpaceOnUse">
<stop stop-color="#00A0FF"/>
<stop offset="0.00657" stop-color="#00A1FF"/>
<stop offset="0.2601" stop-color="#00BEFF"/>
<stop offset="0.5122" stop-color="#00D2FF"/>
<stop offset="0.7604" stop-color="#00DFFF"/>
<stop offset="1" stop-color="#00E3FF"/>
</linearGradient>
<linearGradient id="paint1_linear_233_10669" x1="41.0316" y1="24.0001" x2="12.1143" y2="24.0001" gradientUnits="userSpaceOnUse">
<stop stop-color="#FFE000"/>
<stop offset="0.4087" stop-color="#FFBD00"/>
<stop offset="0.7754" stop-color="#FFA500"/>
<stop offset="1" stop-color="#FF9C00"/>
</linearGradient>
<linearGradient id="paint2_linear_233_10669" x1="30.2664" y1="26.7568" x2="11.111" y2="58.8646" gradientUnits="userSpaceOnUse">
<stop stop-color="#FF3A44"/>
<stop offset="1" stop-color="#C31162"/>
</linearGradient>
<linearGradient id="paint3_linear_233_10669" x1="9.31462" y1="0.214566" x2="17.8606" y2="14.5544" gradientUnits="userSpaceOnUse">
<stop stop-color="#32A071"/>
<stop offset="0.0685" stop-color="#2DA771"/>
<stop offset="0.4762" stop-color="#15CF74"/>
<stop offset="0.8009" stop-color="#06E775"/>
<stop offset="1" stop-color="#00F076"/>
</linearGradient>
<clipPath id="clip0_233_10669">
<rect width="162" height="48" fill="white" transform="translate(0.596924)"/>
</clipPath>
</defs>
</svg>
