<svg width="87" height="40" viewBox="0 0 87 40" fill="none" xmlns="http://www.w3.org/2000/svg">
<path d="M49.4347 28V13.4545H54.8892C56.0066 13.4545 56.9441 13.6629 57.7017 14.0795C58.464 14.4962 59.0393 15.0691 59.4276 15.7983C59.8205 16.5227 60.017 17.3466 60.017 18.2699C60.017 19.2027 59.8205 20.0312 59.4276 20.7557C59.0346 21.4801 58.4545 22.0507 57.6875 22.4673C56.9205 22.8793 55.9759 23.0852 54.8537 23.0852H51.2386V20.919H54.4986C55.152 20.919 55.687 20.8054 56.1037 20.5781C56.5204 20.3509 56.8281 20.0384 57.027 19.6406C57.2306 19.2429 57.3324 18.786 57.3324 18.2699C57.3324 17.7538 57.2306 17.2992 57.027 16.9062C56.8281 16.5133 56.518 16.2079 56.0966 15.9901C55.6799 15.7675 55.1425 15.6562 54.4844 15.6562H52.0696V28H49.4347ZM62.5526 28H59.7401L64.8608 13.4545H68.1136L73.2415 28H70.429L66.544 16.4375H66.4304L62.5526 28ZM62.6449 22.2969H70.3153V24.4134H62.6449V22.2969ZM72.6786 13.4545H75.6545L79.2127 19.8892H79.3548L82.913 13.4545H85.8888L80.5977 22.5739V28H77.9698V22.5739L72.6786 13.4545Z" fill="#FFCA62"/>
<path d="M20.6597 1.63161C25.1085 2.82545 28.8385 5.5687 31.5868 9.66841C32.1429 10.4975 32.5977 11.3032 32.5977 11.4584C32.5977 11.7712 28.7112 15.8474 28.5861 15.6659C28.5429 15.6032 28.1898 14.9212 27.8017 14.1502C26.7777 12.1163 25.6237 10.7414 23.8313 9.42042C21.4661 7.67705 19.9126 7.19559 17.0333 7.3136C13.8969 7.44206 12.1125 8.30354 9.8829 10.7657C5.63816 15.4529 5.05288 22.0488 8.28227 28.8057C10.2715 32.9683 13.1051 35.9027 17.1762 38.0172L19.3969 39.1705L17.793 39.0071C10.4418 38.2578 4.38174 33.4177 1.96587 26.3655C-0.192899 20.0641 0.965564 13.2851 5.10618 7.98648C7.44112 4.9988 10.9742 2.658 14.6515 1.66245C16.9215 1.04819 18.4563 1.04004 20.6597 1.63161Z" fill="#FFCA62"/>
<path d="M18.4442 8.288C18.9636 8.288 18.8234 8.46972 17.5117 9.49866C14.5585 11.8152 12.8618 15.2199 12.6664 19.222C12.4552 23.545 13.5601 26.5849 16.4359 29.5922C18.4309 31.6784 20.1028 32.6138 22.5389 33.0066C24.3823 33.3037 26.9028 32.9173 28.4423 32.1015C30.6647 30.9237 33.162 28.2414 34.2906 25.8198L34.9696 24.3629L36.9939 26.4649L39.0182 28.5666L37.8918 30.3428C35.3158 34.4053 31.471 37.2735 26.9961 38.4714C20.2348 40.281 11.6496 35.005 8.55492 27.1377C7.74461 25.0776 7.18302 22.2398 7.18302 20.204C7.18302 14.5017 11.1487 9.13546 15.9795 8.30125C16.6378 8.18757 17.324 8.13813 17.5048 8.1914C17.6854 8.24441 18.1084 8.288 18.4442 8.288Z" fill="#FFCA62"/>
<path d="M33.5674 25.024C32.5508 27.4737 30.2472 30.0018 27.9266 31.214C26.6346 31.8887 24.5151 32.287 23.2545 32.0918L22.1508 31.9208L22.8713 31.3853C25.1963 29.6564 27.3571 26.8602 27.9515 24.811L28.2345 23.8355H31.1476H34.0606L33.5674 25.024Z" fill="#FFCA62"/>
<path d="M38.2728 12.2733C38.2728 12.312 37.4398 13.1801 36.422 14.2027L34.5709 16.0618L32.1656 16.1933C30.8426 16.2657 29.7118 16.2922 29.6528 16.2522C29.5936 16.2124 30.4268 15.2742 31.5041 14.1673L33.463 12.1547L35.8678 12.179C37.1906 12.1922 38.2728 12.2348 38.2728 12.2733Z" fill="#FFCA62"/>
<path d="M27.1197 1.68462C30.3247 2.55936 33.8889 4.72378 35.8673 6.99678C36.8355 8.10907 38.7663 10.8699 38.7663 11.1419C38.7663 11.1918 37.5856 11.2084 36.1424 11.1783L33.5185 11.1238L32.9485 10.0877C32.0176 8.39453 30.2299 6.1274 28.9673 5.03907C27.2633 3.57021 24.7653 1.95607 23.6722 1.61784C21.0903 0.818802 24.1654 0.878443 27.1197 1.68462Z" fill="#FFCA62"/>
</svg>
