<svg width="24" height="24" viewBox="0 0 24 24" fill="none" xmlns="http://www.w3.org/2000/svg">
<path d="M4.40002 19.3C4.11669 19.3 3.87919 19.2041 3.68752 19.0125C3.49586 18.8208 3.40002 18.5833 3.40002 18.3C3.40002 18.0166 3.49586 17.7833 3.68752 17.6C3.87919 17.4166 4.11669 17.325 4.40002 17.325H5.62502V10.05C5.62502 8.59998 6.05419 7.27914 6.91252 6.08748C7.77086 4.89581 8.91669 4.14164 10.35 3.82498V3.17498C10.35 2.72498 10.5125 2.34998 10.8375 2.04998C11.1625 1.74998 11.55 1.59998 12 1.59998C12.45 1.59998 12.8375 1.74998 13.1625 2.04998C13.4875 2.34998 13.65 2.72498 13.65 3.17498V3.82498C15.0834 4.14164 16.2375 4.89581 17.1125 6.08748C17.9875 7.27914 18.425 8.59998 18.425 10.05V17.325H19.625C19.8917 17.325 20.125 17.4208 20.325 17.6125C20.525 17.8041 20.625 18.0416 20.625 18.325C20.625 18.6083 20.525 18.8416 20.325 19.025C20.125 19.2083 19.8917 19.3 19.625 19.3H4.40002ZM12 22.35C11.4334 22.35 10.9375 22.1416 10.5125 21.725C10.0875 21.3083 9.87502 20.8166 9.87502 20.25H14.125C14.125 20.8333 13.9167 21.3291 13.5 21.7375C13.0834 22.1458 12.5834 22.35 12 22.35ZM7.60002 17.325H16.425V10.05C16.425 8.79998 16.0042 7.74581 15.1625 6.88748C14.3209 6.02914 13.2834 5.59998 12.05 5.59998C10.8 5.59998 9.74586 6.02914 8.88752 6.88748C8.02919 7.74581 7.60002 8.79998 7.60002 10.05V17.325Z" fill="#1E1E1E"/>
</svg>
