<svg width="25" height="24" viewBox="0 0 25 24" fill="none" xmlns="http://www.w3.org/2000/svg">
<path d="M3.85003 10.025C3.58337 10.025 3.3667 9.93748 3.20003 9.76248C3.03337 9.58747 2.9667 9.37498 3.00003 9.12498C3.08337 8.02498 3.3542 6.97914 3.81253 5.98748C4.27087 4.99581 4.8917 4.10831 5.67503 3.32498C5.8417 3.14164 6.05837 3.05414 6.32503 3.06248C6.5917 3.07081 6.8167 3.18331 7.00003 3.39998C7.1667 3.56664 7.24587 3.77081 7.23753 4.01248C7.2292 4.25414 7.1417 4.46664 6.97503 4.64998C6.35837 5.26664 5.87503 5.95414 5.52503 6.71248C5.17503 7.47081 4.95003 8.27498 4.85003 9.12498C4.8167 9.39164 4.70003 9.60831 4.50003 9.77497C4.30003 9.94164 4.08337 10.025 3.85003 10.025ZM21.15 10.025C20.9 10.025 20.6875 9.94164 20.5125 9.77497C20.3375 9.60831 20.2334 9.39164 20.2 9.12498C20.1 8.27498 19.875 7.47081 19.525 6.71248C19.175 5.95414 18.7084 5.26664 18.125 4.64998C17.9584 4.46664 17.8709 4.25414 17.8625 4.01248C17.8542 3.77081 17.9334 3.56664 18.1 3.39998C18.2834 3.18331 18.5042 3.07081 18.7625 3.06248C19.0209 3.05414 19.2334 3.14998 19.4 3.34998C20.1667 4.14998 20.775 5.03748 21.225 6.01248C21.675 6.98748 21.9417 8.02498 22.025 9.12498C22.0584 9.37498 21.9875 9.58747 21.8125 9.76248C21.6375 9.93748 21.4167 10.025 21.15 10.025ZM4.90003 19.3C4.60003 19.3 4.35837 19.2083 4.17503 19.025C3.9917 18.8416 3.90003 18.6083 3.90003 18.325C3.90003 18.025 3.9917 17.7833 4.17503 17.6C4.35837 17.4166 4.60003 17.325 4.90003 17.325H6.12503V10.05C6.12503 8.59998 6.5542 7.27914 7.41253 6.08748C8.27087 4.89581 9.4167 4.14164 10.85 3.82498V3.17498C10.85 2.72498 11.0125 2.34998 11.3375 2.04998C11.6625 1.74998 12.05 1.59998 12.5 1.59998C12.95 1.59998 13.3375 1.74998 13.6625 2.04998C13.9875 2.34998 14.15 2.72498 14.15 3.17498V3.82498C15.5834 4.14164 16.7375 4.89581 17.6125 6.08748C18.4875 7.27914 18.925 8.59998 18.925 10.05V17.325H20.125C20.4084 17.325 20.6459 17.4166 20.8375 17.6C21.0292 17.7833 21.125 18.025 21.125 18.325C21.125 18.6083 21.0292 18.8416 20.8375 19.025C20.6459 19.2083 20.4084 19.3 20.125 19.3H4.90003ZM12.5 22.35C11.9334 22.35 11.4375 22.1416 11.0125 21.725C10.5875 21.3083 10.375 20.8166 10.375 20.25H14.625C14.625 20.8333 14.4167 21.3291 14 21.7375C13.5834 22.1458 13.0834 22.35 12.5 22.35ZM8.10003 17.325H16.925V10.05C16.925 8.79998 16.5 7.74581 15.65 6.88748C14.8 6.02914 13.7584 5.59998 12.525 5.59998C11.275 5.59998 10.225 6.02914 9.37503 6.88748C8.52503 7.74581 8.10003 8.79998 8.10003 10.05V17.325Z" fill="#1E1E1E"/>
</svg>
