<svg width="48" height="48" viewBox="0 0 48 48" fill="none" xmlns="http://www.w3.org/2000/svg">
<path fill-rule="evenodd" clip-rule="evenodd" d="M10.875 45.125C11.4583 45.7083 12.1667 46 13 46H35C35.8333 46 36.5417 45.7083 37.125 45.125C37.7083 44.5417 38 43.8333 38 43V33C38 32.4477 37.5523 32 37 32H36C35.4477 32 35 32.4477 35 33V38.5H13V9.5H28C28.5523 9.5 29 9.05228 29 8.5V3C29 2.44772 28.5523 2 28 2H13C12.1667 2 11.4583 2.29167 10.875 2.875C10.2917 3.45833 10 4.16667 10 5V43C10 43.8333 10.2917 44.5417 10.875 45.125Z" fill="#E0E0E0"/>
<path d="M36.7 26.65C36.5 26.65 36.3167 26.625 36.15 26.575C35.9833 26.525 35.8167 26.4167 35.65 26.25L28.45 19.05C28.15 18.75 28 18.4 28 18C28 17.6 28.15 17.25 28.45 16.95C28.75 16.65 29.1 16.5083 29.5 16.525C29.9 16.5417 30.25 16.6833 30.55 16.95L35.2 21.55V8C35.2 7.56667 35.3417 7.20833 35.625 6.925C35.9083 6.64167 36.2667 6.5 36.7 6.5C37.1333 6.5 37.4917 6.64167 37.775 6.925C38.0583 7.20833 38.2 7.56667 38.2 8V21.55L42.85 16.95C43.15 16.6833 43.5 16.5417 43.9 16.525C44.3 16.5083 44.65 16.65 44.95 16.95C45.25 17.25 45.4 17.6 45.4 18C45.4 18.4 45.25 18.75 44.95 19.05L37.75 26.25C37.5833 26.4167 37.4167 26.525 37.25 26.575C37.0833 26.625 36.9 26.65 36.7 26.65Z" fill="#FFCA62"/>
</svg>
